Coordinates
version=1
nRows=16
nColumns=33
inDegrees=yes

Units are S.I. units (second, meters, Newtons, ...)
Angles are in degrees.

endheader
time	ground_thorax_rot_x	ground_thorax_rot_y	ground_thorax_rot_z	ground_thorax_tx	ground_thorax_ty	ground_thorax_tz	clav_prot_r	clav_elev_r	scapula_abduction_r	scapula_elevation_r	scapula_upward_rot_r	scapula_winging_r	shoulder_elv_r	plane_of_elev_r	axial_rot_r	elbow_flexion_r	pro_sup_r	wrist_flex_r	wrist_dev_r	clav_prot_l	clav_elev_l	scapula_abduction_l	scapula_elevation_l	scapula_upward_rot_l	scapula_winging_l	shoulder_elv_l	plane_of_elev_l	axial_rot_l	elbow_flexion_l	pro_sup_l	wrist_flex_l	wrist_dev_l
      4.09000000	      2.59265335	      2.92308226	     10.14046412	     -0.11267975	      1.03637071	      0.03210253	      6.29285181	     11.15858962	     23.23870609	      6.39566556	     24.49346653	    -12.29709282	     25.41903054	    -71.74025054	     55.23818185	     68.95901893	    -21.82581629	     50.84501160	    -24.99999983	     13.77500821	     -8.59056890	    -20.30402461	    -15.94266667	    -40.47819792	      1.74935288	     66.26168682	    -31.81848135	     -1.42360493	     70.86086877	     11.82215557	     14.28609076	    -19.32501528
      4.10000000	      2.71294725	      2.73828419	      9.83357172	     -0.11171811	      1.03598419	      0.03203502	      6.23439126	     11.39027809	     23.72441591	      6.34348996	     25.26829845	    -12.52927337	     25.73875431	    -71.18303167	     54.63399325	     69.53799442	    -20.78792688	     47.93919420	    -24.99999983	     13.83462794	     -8.65163142	    -20.26898771	    -15.62866502	    -39.92275350	      1.80444266	     66.03575648	    -30.61665666	     -0.85199013	     70.25826917	     11.34000387	     15.02017832	    -18.15024575
      4.11000000	      2.53642419	      2.77487374	     10.19257110	     -0.11178168	      1.03613201	      0.03193855	      6.58471045	     11.14780414	     24.49663997	      6.11697696	     25.30805422	    -12.77930004	     25.86696501	    -70.86193588	     53.43025818	     70.07328080	    -19.07740639	     41.45263480	    -24.99999983	     14.25060295	     -8.99180551	    -20.86558079	    -15.09765066	    -39.48757561	      2.13517118	     66.22964048	    -30.14011490	     -1.12437859	     69.70328306	     10.28644457	     16.95577036	    -15.79727103
      4.12000000	      2.47621947	      2.73940296	      9.95208726	     -0.11107367	      1.03641137	      0.03169632	      6.64776093	     10.77851421	     25.00761613	      5.70146773	     25.64420288	    -12.94896940	     26.15344024	    -69.97499418	     53.05990301	     69.75128456	    -19.05037523	     41.05109996	    -24.99999983	     14.41967010	     -9.47604840	    -21.00018987	    -14.38808814	    -38.92672127	      2.24231968	     66.51313472	    -29.32272023	     -0.96876628	     68.73559785	     10.30958669	     16.99789980	    -15.52003010
      4.13000000	      2.37282636	      2.65228693	      9.95807246	     -0.11080980	      1.03632792	      0.03161016	      6.92215081	     10.40781104	     25.71800888	      5.35046887	     25.75500418	    -13.16645875	     26.35154832	    -69.50111439	     51.13215708	     70.57052901	    -16.49900557	     32.13938089	    -24.99999983	     14.80482186	     -9.83912776	    -21.51053156	    -13.76669723	    -38.33346923	      2.53430173	     66.36798339	    -28.48188347	     -0.53324893	     67.79414045	      8.52573547	     19.72492773	    -12.38169107
      4.14000000	      2.41043883	      2.58301873	      9.98738110	     -0.11021052	      1.03578428	      0.03119060	      6.94418902	     10.49439608	     26.39666903	      5.18710290	     26.52679921	    -13.44736541	     26.34080310	    -68.44715191	     51.14217867	     69.87132887	    -15.63289658	     28.68116306	    -24.99999983	     14.96743444	     -9.79010011	    -21.68074474	    -13.54275816	    -37.76830511	      2.69238277	     66.02190335	    -26.80126499	     -0.46351556	     65.99666876	      8.18855296	     20.03388088	    -11.61889135
      4.15000000	      2.14926192	      2.33535626	      9.89577051	     -0.10975152	      1.03579609	      0.03057113	      7.18823668	      9.92505976	     27.28922922	      4.60738195	     26.87487036	    -13.71851388	     26.30627661	    -66.98959276	     51.12361636	     68.57409266	    -16.10664068	     26.54964212	    -24.99999983	     15.20827566	    -10.16078074	    -21.95187455	    -12.91986314	    -37.17642403	      2.85934631	     66.02654556	    -26.04117133	     -0.01331466	     64.67504976	      7.81459434	     20.63976155	    -10.88875267
      4.16000000	      2.09624694	      2.28663941	      9.93658291	     -0.10938503	      1.03527402	      0.03004947	      7.47457614	      9.59643112	     28.20095196	      4.22462072	     27.23380296	    -14.01412187	     26.36711847	    -65.71109928	     51.34286109	     67.35941611	    -17.25897954	     23.94834952	    -24.99999983	     15.49883632	    -10.39492633	    -22.30042553	    -12.35458875	    -36.44475758	      3.09163314	     65.75021122	    -24.76505941	      0.04837252	     62.70131551	      7.25723557	     21.74403254	     -9.83472654
      4.17000000	      1.98265745	      2.25007147	      9.97345241	     -0.10903580	      1.03479928	      0.02944993	      7.76600805	      9.07604424	     29.04690174	      3.72477529	     27.46732222	    -14.26097183	     26.57481739	    -64.28518416	     51.78715188	     65.91128978	    -18.71181125	     21.66663481	    -24.99999983	     15.83534128	    -10.77803753	    -22.73203419	    -11.67338716	    -35.76371331	      3.33337653	     65.57082687	    -23.64329605	      0.15177890	     60.59556524	      6.55088489	     22.97374629	     -8.74035329
      4.18000000	      1.75605731	      2.12630829	     10.01918273	     -0.10870921	      1.03422574	      0.02874656	      8.08686635	      8.48200551	     30.04429485	      3.13444492	     27.81663089	    -14.55073176	     26.53964083	    -62.57362458	     52.67916822	     63.63484686	    -19.93975551	     20.35177396	    -24.99999983	     16.15085212	    -11.11364161	    -23.14450878	    -11.06939075	    -35.14095915	      3.56021916	     65.48808568	    -22.61810003	      0.24090308	     58.51892955	      6.22529866	     23.61046437	     -8.04772372
      4.19000000	      1.70870288	      2.12048823	     10.04543409	     -0.10824238	      1.03353641	      0.02805129	      8.35411174	      7.93985127	     30.89053447	      2.59796422	     28.13752548	    -14.77417423	     26.66041387	    -60.84621739	     54.02484982	     61.37949935	    -22.73896982	     19.02383293	    -24.99999983	     16.47005323	    -11.48151023	    -23.55068269	    -10.38817756	    -34.42285199	      3.78564230	     65.13447484	    -21.25173277	      0.40946416	     55.95992913	      5.57627676	     24.70825568	     -7.14648729
      4.20000000	      1.59476690	      2.06891084	      9.98123600	     -0.10781272	      1.03268914	      0.02715940	      8.53656323	      7.42936203	     31.71326769	      2.05161181	     28.62398509	    -15.00515704	     26.65196315	    -58.73101308	     56.25460124	     58.52013837	    -27.11230627	     18.87296394	    -24.99999983	     16.83136991	    -11.79242480	    -24.04684878	     -9.75997376	    -33.70737756	      4.05138988	     64.72234660	    -19.85776558	      0.71700614	     53.23630675	      4.80743093	     25.87288794	     -6.23038500
      4.21000000	      1.46134285	      1.97885791	      9.92218035	     -0.10734036	      1.03194398	      0.02616543	      8.68904181	      6.95385282	     32.64579661	      1.47573850	     29.33686415	    -15.25552948	     25.96751000	    -56.36602183	     59.21357220	     54.59311375	    -32.31895515	     20.45385728	    -24.99999983	     17.17937905	    -12.11723492	    -24.52341739	     -9.12558768	    -33.00222742	      4.30130966	     64.26895034	    -18.46177648	      1.14044101	     50.41713063	      4.39516815	     26.59409620	     -5.52445381
      4.22000000	      0.89647028	      2.09588211	     10.09796133	     -0.10740703	      1.03152352	      0.02491058	      8.87996093	      6.45800568	     33.90705534	      0.80982949	     30.37456303	    -15.60222708	     22.45099538	    -53.33933977	     64.37283989	     47.52848438	    -46.69641021	     31.16258365	    -24.99999983	     17.82157921	    -12.52966045	    -25.49469789	     -8.41545082	    -32.31792362	      4.78264626	     64.31750484	    -17.70737003	      0.82364426	     47.92843230	      4.35650270	     27.69046359	     -5.13978569
      4.23000000	     -2.04205913	      1.88193186	      9.74312226	     -0.10779005	      1.03009785	      0.01240744	     14.82837252	    -12.22740490	     33.87360392	    -10.35673183	     15.17008830	     -9.44948737	    -12.95311654	    -65.15732713	    121.46331934	    -63.11080441	   -153.28053453	      0.01167446	     11.56063705	     18.51833156	     -8.17921097	    -26.82617466	    -10.63642704	    -28.85379411	      6.53638190	     60.32422405	    -14.01854431	      1.78830565	     45.01301501	      5.79746106	     27.46677222	     -3.55642482
      4.24000000	     -2.24241509	      2.28411623	      9.50916951	     -0.10660725	      1.02934993	      0.01202615	     14.44551420	    -12.46150289	     33.85794305	    -10.87611117	     16.13949492	     -9.21268734	    -10.28491377	    -63.90277209	    123.40742317	    -59.83610948	   -151.99441684	     -0.68796483	     13.33800904	     19.07062651	     -8.51740613	    -27.72865989	     -9.97606137	    -28.16025861	      7.05364978	     60.09034189	    -12.25655415	      1.73785510	     41.61606469	      6.06579936	     27.97306538	     -3.29385865
